<svg xmlns="http://www.w3.org/2000/svg" version="1.1" xmlns:xlink="http://www.w3.org/1999/xlink" xmlns:svgjs="http://svgjs.dev/svgjs" width="1000" height="260" viewBox="0 0 1000 260"><g transform="matrix(1,0,0,1,-0.6060606060606233,0.6026908650264602)"><svg viewBox="0 0 396 103" data-background-color="#40b98c" preserveAspectRatio="xMidYMid meet" height="260" width="1000" xmlns="http://www.w3.org/2000/svg" xmlns:xlink="http://www.w3.org/1999/xlink"><g id="tight-bounds" transform="matrix(1,0,0,1,0.2400000000000091,-0.23875830422201716)"><svg viewBox="0 0 395.52 103.47751660844403" height="103.47751660844403" width="395.52"><g><svg viewBox="0 0 395.52 103.47751660844403" height="103.47751660844403" width="395.52"><g transform="matrix(1,0,0,1,0,62.240375862427875)"><svg viewBox="0 0 395.52 41.23714074601615" height="41.23714074601615" width="395.52"><g><svg viewBox="0 0 395.52 41.23714074601615" height="41.23714074601615" width="395.52"><g><svg viewBox="0 0 395.52 22.241343259939804" height="22.241343259939804" width="395.52"><g transform="matrix(1,0,0,1,0,0)"><svg width="395.52" viewBox="-0.05 -34.9 631.24 35.5" height="22.241343259939804" data-palette-color="#f8fffc"><path d="M-0.05 0L10.9-34.3 17.15-34.3 28.1 0 22.75 0 20.5-7.35 7.2-7.35 4.95 0-0.05 0ZM8.55-11.9L19.1-11.9 14.8-25.95Q14.4-27.25 13.95-30L13.95-30 13.75-30Q13.3-27.15 12.9-25.95L12.9-25.95 8.55-11.9ZM31.4 0L31.4-34.3 45.35-34.3Q50.35-34.3 53.02-31.68 55.7-29.05 55.7-24.7L55.7-24.7Q55.7-21.55 54.1-19.2 52.5-16.85 49.7-15.85L49.7-15.85 56.5 0 50.95 0 44.8-14.9 36.4-14.9 36.4 0 31.4 0ZM36.4-19.4L45-19.4Q47.5-19.4 48.92-20.85 50.35-22.3 50.35-24.7L50.35-24.7Q50.35-27.05 49-28.4 47.65-29.75 45.05-29.75L45.05-29.75 36.4-29.75 36.4-19.4ZM61 0L61-34.3 65.4-34.3 77.45-13.6Q78.09-12.5 79.34-9.45L79.34-9.45 79.5-9.5 79.4-13.5 79.4-34.3 83.9-34.3 83.9 0 79.59 0 67.45-20.9Q66.8-22.1 65.5-25.1L65.5-25.1 65.3-25Q65.5-22.15 65.5-21L65.5-21 65.5 0 61 0ZM87.19 0L98.14-34.3 104.39-34.3 115.34 0 109.99 0 107.74-7.35 94.44-7.35 92.19 0 87.19 0ZM95.79-11.9L106.34-11.9 102.04-25.95Q101.64-27.25 101.19-30L101.19-30 100.99-30Q100.54-27.15 100.14-25.95L100.14-25.95 95.79-11.9ZM118.44 0L118.44-34.3 131.99-34.3Q134.59-34.3 136.64-33.25 138.69-32.2 139.87-30.28 141.04-28.35 141.04-25.85L141.04-25.85Q141.04-23 139.56-20.9 138.09-18.8 135.79-18L135.79-18 135.79-17.8Q138.44-17 140.14-14.68 141.84-12.35 141.84-9.15L141.84-9.15Q141.84-6.35 140.52-4.28 139.19-2.2 136.94-1.1 134.69 0 131.99 0L131.99 0 118.44 0ZM123.49-19.8L130.59-19.8Q132.94-19.8 134.37-21.28 135.79-22.75 135.79-24.85L135.79-24.85Q135.79-27.25 134.49-28.5 133.19-29.75 130.89-29.75L130.89-29.75 123.49-29.75 123.49-19.8ZM123.49-4.55L131.29-4.55Q133.64-4.55 135.12-5.93 136.59-7.3 136.59-9.8L136.59-9.8Q136.59-12.1 135.06-13.7 133.54-15.3 130.99-15.3L130.99-15.3 123.49-15.3 123.49-4.55ZM158.09 0L158.09-34.3 163.09-34.3 163.09-19.8 175.99-19.8 175.99-34.3 180.99-34.3 180.99 0 175.99 0 175.99-15.3 163.09-15.3 163.09 0 158.09 0ZM187.68 0L187.68-34.3 209.03-34.3 209.03-29.75 192.68-29.75 192.68-19.8 206.83-19.8 206.83-15.3 192.68-15.3 192.68-4.55 209.33-4.55 209.33 0 187.68 0ZM211.63 0L222.58-34.3 228.83-34.3 239.78 0 234.43 0 232.18-7.35 218.88-7.35 216.63 0 211.63 0ZM220.23-11.9L230.78-11.9 226.48-25.95Q226.08-27.25 225.63-30L225.63-30 225.43-30Q224.98-27.15 224.58-25.95L224.58-25.95 220.23-11.9ZM243.08 0L243.08-34.3 248.08-34.3 248.08-4.65 262.28-4.65 262.28 0 243.08 0ZM270.23 0L270.23-29.75 261.13-29.75 261.13-34.3 284.33-34.3 284.33-29.75 275.28-29.75 275.28 0 270.23 0ZM288.62 0L288.62-34.3 293.62-34.3 293.62-19.8 306.52-19.8 306.52-34.3 311.52-34.3 311.52 0 306.52 0 306.52-15.3 293.62-15.3 293.62 0 288.62 0ZM341.77 0.6Q335.12 0.6 331.67-3.83 328.22-8.25 328.22-17.15L328.22-17.15Q328.22-26.05 331.67-30.48 335.12-34.9 341.77-34.9L341.77-34.9Q347.27-34.9 350.62-31.58 353.97-28.25 353.97-21.8L353.97-21.8 348.82-21.8Q348.82-26 346.92-28.2 345.02-30.4 341.77-30.4L341.77-30.4Q333.47-30.4 333.47-18.4L333.47-18.4 333.47-15.9Q333.47-3.9 341.87-3.9L341.87-3.9Q345.17-3.9 347.09-6.08 349.02-8.25 349.02-12.45L349.02-12.45 353.97-12.45Q353.97-6 350.64-2.7 347.32 0.6 341.77 0.6L341.77 0.6ZM371.82 0.6Q365.27 0.6 361.67-3.88 358.07-8.35 358.07-17.15L358.07-17.15Q358.07-25.95 361.67-30.43 365.27-34.9 371.82-34.9L371.82-34.9Q378.37-34.9 381.97-30.43 385.57-25.95 385.57-17.15L385.57-17.15Q385.57-8.35 381.97-3.88 378.37 0.6 371.82 0.6L371.82 0.6ZM371.82-3.9Q375.87-3.9 378.09-6.98 380.32-10.05 380.32-15.9L380.32-15.9 380.32-18.4Q380.32-24.25 378.09-27.33 375.87-30.4 371.82-30.4L371.82-30.4Q367.77-30.4 365.54-27.33 363.32-24.25 363.32-18.4L363.32-18.4 363.32-15.9Q363.32-10.05 365.54-6.98 367.77-3.9 371.82-3.9L371.82-3.9ZM391.11 0L391.11-34.3 395.51-34.3 407.56-13.6Q408.21-12.5 409.46-9.45L409.46-9.45 409.61-9.5 409.51-13.5 409.51-34.3 414.01-34.3 414.01 0 409.71 0 397.56-20.9Q396.91-22.1 395.61-25.1L395.61-25.1 395.41-25Q395.61-22.15 395.61-21L395.61-21 395.61 0 391.11 0ZM430.86 0.6Q425.76 0.6 422.51-1.98 419.26-4.55 419.26-9.8L419.26-9.8 419.31-10.85 424.51-10.85 424.46-9.85Q424.46-7 426.21-5.45 427.96-3.9 430.86-3.9L430.86-3.9Q434.06-3.9 435.74-5.28 437.41-6.65 437.41-9.1L437.41-9.1Q437.41-10.9 436.44-12.05 435.46-13.2 433.99-13.88 432.51-14.55 429.96-15.35L429.96-15.35Q426.76-16.4 424.76-17.4 422.76-18.4 421.36-20.38 419.96-22.35 419.96-25.55L419.96-25.55Q419.96-30.1 423.09-32.5 426.21-34.9 431.01-34.9L431.01-34.9Q435.81-34.9 438.86-32.45 441.91-30 441.91-25.1L441.91-25.1 441.91-24.5 436.71-24.5 436.71-25.15Q436.71-27.6 435.14-29 433.56-30.4 431.06-30.4L431.06-30.4Q428.41-30.4 426.81-29.25 425.21-28.1 425.21-25.95L425.21-25.95Q425.21-24.35 426.16-23.28 427.11-22.2 428.56-21.55 430.01-20.9 432.46-20.15L432.46-20.15Q435.71-19.1 437.74-18.1 439.76-17.1 441.21-15.15 442.66-13.2 442.66-10.05L442.66-10.05Q442.66-4.5 439.49-1.95 436.31 0.6 430.86 0.6L430.86 0.6ZM459.51 0.6Q454.06 0.6 451.06-2.38 448.06-5.35 448.06-11L448.06-11 448.06-34.3 453.11-34.3 453.11-10.9Q453.11-7.5 454.78-5.7 456.46-3.9 459.51-3.9L459.51-3.9Q462.56-3.9 464.26-5.73 465.96-7.55 465.96-10.9L465.96-10.9 465.96-34.3 470.96-34.3 470.96-11Q470.96-5.35 467.96-2.38 464.96 0.6 459.51 0.6L459.51 0.6ZM477.66 0L477.66-34.3 482.66-34.3 482.66-4.65 496.86-4.65 496.86 0 477.66 0ZM504.8 0L504.8-29.75 495.7-29.75 495.7-34.3 518.9-34.3 518.9-29.75 509.85-29.75 509.85 0 504.8 0ZM516.8 0L527.75-34.3 534-34.3 544.95 0 539.6 0 537.35-7.35 524.05-7.35 521.8 0 516.8 0ZM525.4-11.9L535.95-11.9 531.65-25.95Q531.25-27.25 530.8-30L530.8-30 530.6-30Q530.15-27.15 529.75-25.95L529.75-25.95 525.4-11.9ZM548.25 0L548.25-34.3 552.65-34.3 564.7-13.6Q565.35-12.5 566.6-9.45L566.6-9.45 566.75-9.5 566.65-13.5 566.65-34.3 571.15-34.3 571.15 0 566.85 0 554.7-20.9Q554.05-22.1 552.75-25.1L552.75-25.1 552.55-25Q552.75-22.15 552.75-21L552.75-21 552.75 0 548.25 0ZM589.99 0.6Q583.34 0.6 579.89-3.83 576.44-8.25 576.44-17.15L576.44-17.15Q576.44-26.05 579.89-30.48 583.34-34.9 589.99-34.9L589.99-34.9Q595.49-34.9 598.84-31.58 602.19-28.25 602.19-21.8L602.19-21.8 597.04-21.8Q597.04-26 595.14-28.2 593.24-30.4 589.99-30.4L589.99-30.4Q581.69-30.4 581.69-18.4L581.69-18.4 581.69-15.9Q581.69-3.9 590.09-3.9L590.09-3.9Q593.39-3.9 595.32-6.08 597.24-8.25 597.24-12.45L597.24-12.45 602.19-12.45Q602.19-6 598.87-2.7 595.54 0.6 589.99 0.6L589.99 0.6ZM615.29 0L615.29-13.8 604.34-34.3 609.79-34.3 617.99-18.65 618.19-18.65 626.24-34.3 631.19-34.3 620.29-13.8 620.29 0 615.29 0Z" opacity="1" transform="matrix(1,0,0,1,0,0)" fill="#f8fffc" class="undefined-text-0" data-fill-palette-color="primary" id="text-0"></path></svg></g></svg></g><g transform="matrix(1,0,0,1,0,27.491990611373353)"><svg viewBox="0 0 395.52 13.745150134642799" height="13.745150134642799" width="395.52"><g transform="matrix(1,0,0,1,0,0)"><svg width="395.52" viewBox="0.9 -39.6 1159.6399999999999 40.300000000000004" height="13.745150134642799" data-palette-color="#528265"><path d="M31.9-8.2L34.1-8.2 34.1 0 18.3 0 18.3-8.2 20.4-8.2 20.4-16.4Q20.4-18.05 19.7-18.82 19-19.6 17.6-19.6L17.6-19.6Q14.6-19.6 14.6-16.4L14.6-16.4 14.6-8.2 16.7-8.2 16.7 0 0.9 0 0.9-8.2 3.1-8.2 3.1-30.7 0.9-30.7 0.9-38.9 14.6-38.9 14.6-23.9Q16.45-26.2 18.6-27.35 20.75-28.5 23.6-28.5L23.6-28.5Q27.75-28.5 29.83-25.9 31.9-23.3 31.9-18.75L31.9-18.75 31.9-8.2ZM129.22 0.7Q122.12 0.7 118.12-3.03 114.12-6.75 114.12-13.9L114.12-13.9Q114.12-21.05 118.12-24.78 122.12-28.5 129.22-28.5L129.22-28.5Q136.27-28.5 139.39-24.83 142.52-21.15 142.52-15.7L142.52-15.7 142.52-12.1 126.32-12.1 126.32-11.8Q126.32-9.95 127.42-9.08 128.52-8.2 131.07-8.2L131.07-8.2Q134.12-8.2 136.87-8.65 139.62-9.1 141.67-9.8L141.67-9.8 141.67-1.8Q139.92-0.85 136.54-0.08 133.17 0.7 129.22 0.7L129.22 0.7ZM126.32-17.6L132.12-17.6 132.12-18.2Q132.12-19.9 131.39-20.65 130.67-21.4 129.22-21.4L129.22-21.4Q127.77-21.4 127.04-20.63 126.32-19.85 126.32-18.2L126.32-18.2 126.32-17.6ZM249.58-8.2L251.78-8.2 251.78 0 238.58 0 238.58-3.4Q237.48-1.8 235.51-0.55 233.53 0.7 230.68 0.7L230.68 0.7Q226.93 0.7 224.78-1.3 222.63-3.3 222.63-6.95L222.63-6.95Q222.63-16.4 238.68-16.65L238.68-16.65Q238.53-18.35 237.38-18.98 236.23-19.6 233.48-19.6L233.48-19.6Q231.23-19.6 228.66-19.13 226.08-18.65 223.93-17.85L223.93-17.85 223.93-27.05Q226.58-27.7 229.68-28.1 232.78-28.5 235.73-28.5L235.73-28.5Q243.18-28.5 246.38-25.8 249.58-23.1 249.58-17.45L249.58-17.45 249.58-8.2ZM238.58-11.4L238.58-11.7Q236.33-11.7 235.11-11.1 233.88-10.5 233.88-9.1L233.88-9.1Q233.88-8.25 234.41-7.73 234.93-7.2 235.88-7.2L235.88-7.2Q237.18-7.2 237.88-8.3 238.58-9.4 238.58-11.4L238.58-11.4ZM347.9 0.05L332 0.05 332-8.2 334.2-8.2 334.2-30.7 332-30.7 332-38.9 345.7-38.9 345.7-8.2 347.9-8.2 347.9 0.05ZM440.47 0.7Q435.17 0.7 432.49-1.88 429.82-4.45 429.82-10.55L429.82-10.55 429.82-19.6 427.62-19.6 427.62-27.8Q429.52-27.8 430.47-28.78 431.42-29.75 431.42-31.45L431.42-31.45 431.42-33.7 442.02-33.7 442.02-27.8 448.77-27.8 448.77-19.6 442.02-19.6 442.02-11.4Q442.02-9.75 442.74-8.97 443.47-8.2 444.92-8.2L444.92-8.2Q446.82-8.2 449.07-8.65L449.07-8.65 449.07-0.8Q447.67-0.25 445.29 0.23 442.92 0.7 440.47 0.7L440.47 0.7ZM560.29-8.2L562.49-8.2 562.49 0 546.69 0 546.69-8.2 548.79-8.2 548.79-16.4Q548.79-18.05 548.09-18.82 547.39-19.6 545.99-19.6L545.99-19.6Q542.99-19.6 542.99-16.4L542.99-16.4 542.99-8.2 545.09-8.2 545.09 0 529.29 0 529.29-8.2 531.49-8.2 531.49-30.7 529.29-30.7 529.29-38.9 542.99-38.9 542.99-23.9Q544.84-26.2 546.99-27.35 549.14-28.5 551.99-28.5L551.99-28.5Q556.14-28.5 558.21-25.9 560.29-23.3 560.29-18.75L560.29-18.75 560.29-8.2ZM736.32 0L736.32-8.2 738.52-8.2 738.52-19.6 736.32-19.6 736.32-27.8 738.62-27.8Q738.62-33.9 741.6-36.75 744.57-39.6 750.27-39.6L750.27-39.6Q753.02-39.6 755.2-39.2 757.37-38.8 758.37-38.3L758.37-38.3 758.37-30.45Q755.72-30.7 753.47-30.7L753.47-30.7Q751.52-30.7 750.77-30.05 750.02-29.4 750.02-27.8L750.02-27.8 753.92-27.8 753.92-19.6 750.02-19.6 750.02-8.2 753.92-8.2 753.92 0 736.32 0ZM846.74-30.55L836.54-30.55 836.54-38.9 846.74-38.9 846.74-30.55ZM850.04 0L834.14 0 834.14-8.2 836.34-8.2 836.34-19.6 834.14-19.6 834.14-27.8 847.84-27.8 847.84-8.2 850.04-8.2 850.04 0ZM951.41-28.5Q952.41-28.5 953.31-28.3 954.21-28.1 954.81-27.8L954.81-27.8 954.81-18.25Q952.76-19.1 950.41-19.1L950.41-19.1Q947.26-19.1 945.56-17.45 943.86-15.8 943.86-12.55L943.86-12.55 943.86-8.2 948.36-8.2 948.36 0 930.16 0 930.16-8.2 932.36-8.2 932.36-19.6 930.16-19.6 930.16-27.8 943.86-27.8 943.86-24.15Q945.26-26.25 947.06-27.38 948.86-28.5 951.41-28.5L951.41-28.5ZM1047.17 0.7Q1040.87 0.7 1035.02-1.3L1035.02-1.3 1035.02-8.7 1043.12-8.7 1043.12-8.2Q1043.12-5.8 1046.17-5.8L1046.17-5.8Q1048.87-5.8 1048.87-7.65L1048.87-7.65Q1048.87-8.65 1048.1-9.15 1047.32-9.65 1045.37-10L1045.37-10 1042.87-10.45Q1035.02-11.85 1035.02-19.35L1035.02-19.35Q1035.02-23.7 1038.32-26.1 1041.62-28.5 1047.22-28.5L1047.22-28.5Q1053.47-28.5 1057.77-26.4L1057.77-26.4 1057.77-19.45 1050.17-19.45 1050.17-19.95Q1050.17-20.95 1049.5-21.48 1048.82-22 1047.52-22L1047.52-22Q1045.02-22 1045.02-20.4L1045.02-20.4Q1045.02-19.55 1045.72-19.1 1046.42-18.65 1048.27-18.25L1048.27-18.25 1051.12-17.7Q1055.57-16.85 1057.47-14.55 1059.37-12.25 1059.37-8.65L1059.37-8.65Q1059.37-4.1 1056.2-1.7 1053.02 0.7 1047.17 0.7L1047.17 0.7ZM1151.94 0.7Q1146.64 0.7 1143.97-1.88 1141.29-4.45 1141.29-10.55L1141.29-10.55 1141.29-19.6 1139.09-19.6 1139.09-27.8Q1140.99-27.8 1141.94-28.78 1142.89-29.75 1142.89-31.45L1142.89-31.45 1142.89-33.7 1153.49-33.7 1153.49-27.8 1160.24-27.8 1160.24-19.6 1153.49-19.6 1153.49-11.4Q1153.49-9.75 1154.22-8.97 1154.94-8.2 1156.39-8.2L1156.39-8.2Q1158.29-8.2 1160.54-8.65L1160.54-8.65 1160.54-0.8Q1159.14-0.25 1156.77 0.23 1154.39 0.7 1151.94 0.7L1151.94 0.7Z" opacity="1" transform="matrix(1,0,0,1,0,0)" fill="#528265" class="undefined-text-1" data-fill-palette-color="secondary" id="text-1"></path></svg></g></svg></g></svg></g></svg></g><g transform="matrix(1,0,0,1,152.99866727864634,0)"><svg viewBox="0 0 89.52266544270731 56.989728510994325" height="56.989728510994325" width="89.52266544270731"><g><svg xmlns="http://www.w3.org/2000/svg" xmlns:xlink="http://www.w3.org/1999/xlink" version="1.1" x="8" y="0" viewBox="4.823 14.981 90.35499999999999 70.037" enable-background="new 0 0 100 100" xml:space="preserve" height="56.989728510994325" width="73.52266544270731" class="icon-icon-0" data-fill-palette-color="accent" id="icon-0"><path fill="#528265" d="M71.611 14.981c-9.679 0-17.985 5.842-21.614 14.185-3.628-8.343-11.922-14.185-21.601-14.185-13.023 0-23.573 10.553-23.573 23.57 0 7.755 3.807 14.581 9.58 18.876l35.594 27.591 35.601-27.591c5.78-4.295 9.58-11.121 9.58-18.876C95.178 25.535 84.621 14.981 71.611 14.981zM72.329 53.09H59.881l-3.455-9.343L48.84 67.1l-7.623-17.074-0.762 2.175H27.673v-3.558h10.258l2.886-8.241 7.499 16.795 7.892-24.296 6.152 16.631h9.97V53.09z" data-fill-palette-color="accent"></path></svg></g></svg></g><g><rect width="152.99866727864634" height="2.005747288247616" y="53.983981222746706" x="242.52133272135364" fill="#528265" data-fill-palette-color="accent"></rect><rect width="152.99866727864634" height="2.005747288247616" y="53.983981222746706" x="0" fill="#528265" data-fill-palette-color="accent"></rect><rect width="152.99866727864634" height="2.005747288247616" y="49.972486646251475" x="242.52133272135364" fill="#528265" data-fill-palette-color="accent"></rect><rect width="152.99866727864634" height="2.005747288247616" y="49.972486646251475" x="0" fill="#528265" data-fill-palette-color="accent"></rect></g></svg></g><defs></defs></svg><rect width="395.52" height="103.47751660844403" fill="none" stroke="none" visibility="hidden"></rect></g></svg></g></svg>